<svg xmlns="http://www.w3.org/2000/svg" aria-hidden="true" focusable="false" role="img" width="1.1em" height="1.1em" viewBox="0 0 50 50" preserveAspectRatio="xMidYMid meet">
  <g id="グループ_1" data-name="グループ 1" transform="translate(-392 -371)">
    <g id="iconfinder_001-vote-choice-1_6971195" transform="translate(392.39 373.074)">
      <path id="パス_1" data-name="パス 1" d="M38.647,28.195l3.393,1.421L24.325,37.033,6.61,29.616,10,28.195" transform="translate(0 -6.616)" fill="none" stroke="#1c4db8" stroke-linecap="round" stroke-linejoin="round" stroke-width="2"/>
      <path id="パス_9" data-name="パス 9" d="M7.524,3.151,0,0" transform="translate(20.563 21.424)" fill="none" stroke="#1c4db8" stroke-linecap="round" stroke-width="2"/>
      <path id="パス_2" data-name="パス 2" d="M6.61,30.071v13.1A1.747,1.747,0,0,0,7.682,44.78L23.65,51.467a1.742,1.742,0,0,0,1.35,0L40.968,44.78a1.746,1.746,0,0,0,1.072-1.611v-13.1" transform="translate(0 -7.071)" fill="none" stroke="#1c4db8" stroke-linecap="round" stroke-linejoin="round" stroke-width="2"/>
      <path id="パス_8" data-name="パス 8" d="M0,0V14.114" transform="translate(24.325 30.417)" fill="none" stroke="#1c4db8" stroke-linecap="round" stroke-width="2"/>
      <path id="パス_10" data-name="パス 10" d="M1.129,0h9.927a1.129,1.129,0,0,1,1.129,1.129V15.692a1.129,1.129,0,0,1-1.129,1.129H1.129A1.129,1.129,0,0,1,0,15.692V1.129A1.129,1.129,0,0,1,1.129,0Z" transform="translate(6.733 3.835) rotate(-12.528)" fill="none" stroke="#1c4db8" stroke-linecap="round" stroke-width="2"/>
      <path id="パス_3" data-name="パス 3" d="M14.437,16.534s-2.02-6.131,1.115-6.827,3.9,5.713,3.9,5.713" transform="translate(-1.744 -2.118)" fill="none" stroke="#1c4db8" stroke-linecap="round" stroke-linejoin="round" stroke-width="2"/>
      <path id="パス_4" data-name="パス 4" d="M13.943,15.036c1.394.164,4.284-.815,4.771-1.886" transform="translate(-1.779 -2.966)" fill="none" stroke="#1c4db8" stroke-linecap="round" stroke-linejoin="round" stroke-width="2"/>
      <path id="パス_5" data-name="パス 5" d="M43.619,13.872a4.165,4.165,0,0,0-1.292-.227q-.616-.042-1.231-.076a15.971,15.971,0,0,1-.7,2.452,2.918,2.918,0,0,0,1.724.441,2.594,2.594,0,0,0,2.038-.833,1.11,1.11,0,0,0-.534-1.757Z" transform="translate(-8.196 -3.068)" fill="#ff8e5b"/>
      <path id="パス_6" data-name="パス 6" d="M43.991,11.428c.123-.028.357-.067.422-.2.236-.476-1.094-.985-1.906-1.082a2.7,2.7,0,0,0-.632-.041c-.048.178.014-.024-.207,1.185-.018.1-.038.193-.056.29a13.278,13.278,0,0,0,2.38-.154Z" transform="translate(-8.492 -2.227)" fill="#ff8e5b"/>
      <path id="パス_7" data-name="パス 7" d="M46.951,3.573,38.163,1A1.893,1.893,0,0,0,35.815,2.29L31.942,15.524a1.9,1.9,0,0,0,1.288,2.348l8.785,2.57a1.893,1.893,0,0,0,2.348-1.288L48.236,5.922a1.893,1.893,0,0,0-1.285-2.349Zm-4.971,10.5a4.322,4.322,0,0,1-4.739-.53.56.56,0,0,1-.106-.626,15.581,15.581,0,0,0,.989-3.7c.1-.564.183-1.14.317-1.7.151-.632.664-.77,1.247-.764A4.428,4.428,0,0,1,42.743,7.84a1.515,1.515,0,0,1,.379,1.525,1.337,1.337,0,0,1-.606.69,2.121,2.121,0,0,1,.953,1.84,2.63,2.63,0,0,1-1.489,2.183Z" transform="translate(-6.128 0)" fill="#ff8e5b"/>
    </g>
  </g>
</svg>
